# xmcd
#
# Track frame offsets:
#	150
#	13807
#	25493
#	29590
#	45705
#	53774
#	61258
#	77025
#	92100
#	103353
#	115310
#	117523
#	131526
#	151687
#	168437
#	186317
#	198954
#	218449
#	230834
#	234680
#	250896
#	263218
#	277481
#
# Disc length: 3898 seconds
#
# Revision: 4
# Processed by: cddbd v1.5.2PL0 Copyright (c) Steve Scherf et al.
# Submitted via: audiograbber 1.83.01
#
DISCID=540f3817
DTITLE=Earl Scruggs - The Three Pickers
DYEAR=2003
DGENRE=Country
TTITLE0=Feast Here Tonight
TTITLE1=What Would You Give In Exchange For Your Soul
TTITLE2=Spoken Introduction 01
TTITLE3=Who Will Sing For Me?
TTITLE4=Spoken Introduction 02
TTITLE5=Soldier's Joy
TTITLE6=Walk On Boy
TTITLE7=Daybreak Blues
TTITLE8=Don't Let Your Deal Go Down
TTITLE9=Pick Along
TTITLE10=Spoken Introduction 03
TTITLE11=What Is A Home Without Love?
TTITLE12=Doin' My Time
TTITLE13=Earl's Breakdown
TTITLE14=The Storms Are On The Ocean
TTITLE15=Down In The Valley To Pray
TTITLE16=The Banks Of The Ohio
TTITLE17=Ridin' That Midnight Train
TTITLE18=Spoken Introduction 04
TTITLE19=Road To Spencer
TTITLE20=Katy Hill
TTITLE21=Foggy Mountain Top
TTITLE22=Roll In My Sweet Baby's Arms
EXTD=
EXTT0=
EXTT1=
EXTT2=
EXTT3=
EXTT4=
EXTT5=
EXTT6=
EXTT7=
EXTT8=
EXTT9=
EXTT10=
EXTT11=
EXTT12=
EXTT13=
EXTT14=
EXTT15=
EXTT16=
EXTT17=
EXTT18=
EXTT19=
EXTT20=
EXTT21=
EXTT22=
PLAYORDER=
